<svg xmlns="http://www.w3.org/2000/svg" viewBox="0 0 128 128">
  <path fill="#FF5D01" d="M81.504 9.465c.973 1.207 1.469 2.836 2.457 6.09l21.656 71.136a90.079 90.079 0 0 0-25.89-8.765L65.629 30.28a1.833 1.833 0 0 0-3.52.004L48.18 77.902a90.104 90.104 0 0 0-26.003 8.778l21.758-71.105c.992-3.25 1.488-4.879 2.461-6.09a8.763 8.763 0 0 1 3.58-2.765c1.454-.609 3.156-.609 6.559-.609h15.331c3.403 0 5.105 0 6.559.61A8.766 8.766 0 0 1 81.504 9.465Zm0 0"/>
  <path fill="#FF5D01" d="M84.094 90.074c-3.57 3.055-10.696 5.137-18.903 5.137-10.07 0-18.515-3.137-20.754-7.356-.8 2.418-.98 4.992-.98 6.691 0 0-.527 8.683 5.508 14.719a5.585 5.585 0 0 1 5.586-5.586c5.285 0 5.28 4.613 5.277 8.352v.332c0 5.684 3.473 10.567 8.441 12.629a11.44 11.44 0 0 1-1.137-4.972c0-5.379 3.145-7.379 6.8-9.621 2.93-1.8 6.188-3.805 8.414-7.805a15.31 15.31 0 0 0 1.875-7.32 15.354 15.354 0 0 0-.127-1.2Zm0 0"/>
</svg>
